<svg aria-hidden="true" style="position: absolute; width: 0; height: 0; overflow: hidden;" version="1.1" xmlns="http://www.w3.org/2000/svg" xmlns:xlink="http://www.w3.org/1999/xlink">
<defs>
<symbol id="bi_grid" viewBox="0 0 32 32">
<path d="M2 5c0-0.796 0.316-1.559 0.879-2.121s1.326-0.879 2.121-0.879h6c0.796 0 1.559 0.316 2.121 0.879s0.879 1.326 0.879 2.121v6c0 0.796-0.316 1.559-0.879 2.121s-1.326 0.879-2.121 0.879h-6c-0.796 0-1.559-0.316-2.121-0.879s-0.879-1.326-0.879-2.121v-6zM5 4c-0.265 0-0.52 0.105-0.707 0.293s-0.293 0.442-0.293 0.707v6c0 0.265 0.105 0.52 0.293 0.707s0.442 0.293 0.707 0.293h6c0.265 0 0.52-0.105 0.707-0.293s0.293-0.442 0.293-0.707v-6c0-0.265-0.105-0.52-0.293-0.707s-0.442-0.293-0.707-0.293h-6zM18 5c0-0.796 0.316-1.559 0.879-2.121s1.326-0.879 2.121-0.879h6c0.796 0 1.559 0.316 2.121 0.879s0.879 1.326 0.879 2.121v6c0 0.796-0.316 1.559-0.879 2.121s-1.326 0.879-2.121 0.879h-6c-0.796 0-1.559-0.316-2.121-0.879s-0.879-1.326-0.879-2.121v-6zM21 4c-0.265 0-0.52 0.105-0.707 0.293s-0.293 0.442-0.293 0.707v6c0 0.265 0.105 0.52 0.293 0.707s0.442 0.293 0.707 0.293h6c0.265 0 0.52-0.105 0.707-0.293s0.293-0.442 0.293-0.707v-6c0-0.265-0.105-0.52-0.293-0.707s-0.442-0.293-0.707-0.293h-6zM2 21c0-0.796 0.316-1.559 0.879-2.121s1.326-0.879 2.121-0.879h6c0.796 0 1.559 0.316 2.121 0.879s0.879 1.326 0.879 2.121v6c0 0.796-0.316 1.559-0.879 2.121s-1.326 0.879-2.121 0.879h-6c-0.796 0-1.559-0.316-2.121-0.879s-0.879-1.326-0.879-2.121v-6zM5 20c-0.265 0-0.52 0.105-0.707 0.293s-0.293 0.442-0.293 0.707v6c0 0.265 0.105 0.52 0.293 0.707s0.442 0.293 0.707 0.293h6c0.265 0 0.52-0.105 0.707-0.293s0.293-0.442 0.293-0.707v-6c0-0.265-0.105-0.52-0.293-0.707s-0.442-0.293-0.707-0.293h-6zM18 21c0-0.796 0.316-1.559 0.879-2.121s1.326-0.879 2.121-0.879h6c0.796 0 1.559 0.316 2.121 0.879s0.879 1.326 0.879 2.121v6c0 0.796-0.316 1.559-0.879 2.121s-1.326 0.879-2.121 0.879h-6c-0.796 0-1.559-0.316-2.121-0.879s-0.879-1.326-0.879-2.121v-6zM21 20c-0.265 0-0.52 0.105-0.707 0.293s-0.293 0.442-0.293 0.707v6c0 0.265 0.105 0.52 0.293 0.707s0.442 0.293 0.707 0.293h6c0.265 0 0.52-0.105 0.707-0.293s0.293-0.442 0.293-0.707v-6c0-0.265-0.105-0.52-0.293-0.707s-0.442-0.293-0.707-0.293h-6z"></path>
</symbol>
<symbol id="bi_grid-1x2" viewBox="0 0 32 32">
<path d="M12 2h-10v28h10v-28zM30 2h-10v10h10v-10zM30 20v10h-10v-10h10zM0 2c0-0.53 0.211-1.039 0.586-1.414s0.884-0.586 1.414-0.586h10c0.53 0 1.039 0.211 1.414 0.586s0.586 0.884 0.586 1.414v28c0 0.53-0.211 1.039-0.586 1.414s-0.884 0.586-1.414 0.586h-10c-0.53 0-1.039-0.211-1.414-0.586s-0.586-0.884-0.586-1.414v-28zM18 2c0-0.53 0.211-1.039 0.586-1.414s0.884-0.586 1.414-0.586h10c0.53 0 1.039 0.211 1.414 0.586s0.586 0.884 0.586 1.414v10c0 0.53-0.211 1.039-0.586 1.414s-0.884 0.586-1.414 0.586h-10c-0.53 0-1.039-0.211-1.414-0.586s-0.586-0.884-0.586-1.414v-10zM20 18c-0.53 0-1.039 0.211-1.414 0.586s-0.586 0.884-0.586 1.414v10c0 0.53 0.211 1.039 0.586 1.414s0.884 0.586 1.414 0.586h10c0.53 0 1.039-0.211 1.414-0.586s0.586-0.884 0.586-1.414v-10c0-0.53-0.211-1.039-0.586-1.414s-0.884-0.586-1.414-0.586h-10z"></path>
</symbol>
<symbol id="bi_grid-3x3-gap" viewBox="0 0 32 32">
<path d="M8 4v4h-4v-4h4zM10 28v-4c0-0.53-0.211-1.039-0.586-1.414s-0.884-0.586-1.414-0.586h-4c-0.53 0-1.039 0.211-1.414 0.586s-0.586 0.884-0.586 1.414v4c0 0.53 0.211 1.039 0.586 1.414s0.884 0.586 1.414 0.586h4c0.53 0 1.039-0.211 1.414-0.586s0.586-0.884 0.586-1.414zM10 18v-4c0-0.53-0.211-1.039-0.586-1.414s-0.884-0.586-1.414-0.586h-4c-0.53 0-1.039 0.211-1.414 0.586s-0.586 0.884-0.586 1.414v4c0 0.53 0.211 1.039 0.586 1.414s0.884 0.586 1.414 0.586h4c0.53 0 1.039-0.211 1.414-0.586s0.586-0.884 0.586-1.414zM10 8v-4c0-0.53-0.211-1.039-0.586-1.414s-0.884-0.586-1.414-0.586h-4c-0.53 0-1.039 0.211-1.414 0.586s-0.586 0.884-0.586 1.414v4c0 0.53 0.211 1.039 0.586 1.414s0.884 0.586 1.414 0.586h4c0.53 0 1.039-0.211 1.414-0.586s0.586-0.884 0.586-1.414zM20 28v-4c0-0.53-0.211-1.039-0.586-1.414s-0.884-0.586-1.414-0.586h-4c-0.53 0-1.039 0.211-1.414 0.586s-0.586 0.884-0.586 1.414v4c0 0.53 0.211 1.039 0.586 1.414s0.884 0.586 1.414 0.586h4c0.53 0 1.039-0.211 1.414-0.586s0.586-0.884 0.586-1.414zM20 18v-4c0-0.53-0.211-1.039-0.586-1.414s-0.884-0.586-1.414-0.586h-4c-0.53 0-1.039 0.211-1.414 0.586s-0.586 0.884-0.586 1.414v4c0 0.53 0.211 1.039 0.586 1.414s0.884 0.586 1.414 0.586h4c0.53 0 1.039-0.211 1.414-0.586s0.586-0.884 0.586-1.414zM20 8v-4c0-0.53-0.211-1.039-0.586-1.414s-0.884-0.586-1.414-0.586h-4c-0.53 0-1.039 0.211-1.414 0.586s-0.586 0.884-0.586 1.414v4c0 0.53 0.211 1.039 0.586 1.414s0.884 0.586 1.414 0.586h4c0.53 0 1.039-0.211 1.414-0.586s0.586-0.884 0.586-1.414zM18 4v4h-4v-4h4zM28 4v4h-4v-4h4zM8 14v4h-4v-4h4zM18 14v4h-4v-4h4zM28 14h-4v4h4v-4zM8 24v4h-4v-4h4zM18 24v4h-4v-4h4zM28 24v4h-4v-4h4zM24 2c-0.53 0-1.039 0.211-1.414 0.586s-0.586 0.884-0.586 1.414v4c0 0.53 0.211 1.039 0.586 1.414s0.884 0.586 1.414 0.586h4c0.53 0 1.039-0.211 1.414-0.586s0.586-0.884 0.586-1.414v-4c0-0.53-0.211-1.039-0.586-1.414s-0.884-0.586-1.414-0.586h-4zM22 14c0-0.53 0.211-1.039 0.586-1.414s0.884-0.586 1.414-0.586h4c0.53 0 1.039 0.211 1.414 0.586s0.586 0.884 0.586 1.414v4c0 0.53-0.211 1.039-0.586 1.414s-0.884 0.586-1.414 0.586h-4c-0.53 0-1.039-0.211-1.414-0.586s-0.586-0.884-0.586-1.414v-4zM24 22c-0.53 0-1.039 0.211-1.414 0.586s-0.586 0.884-0.586 1.414v4c0 0.53 0.211 1.039 0.586 1.414s0.884 0.586 1.414 0.586h4c0.53 0 1.039-0.211 1.414-0.586s0.586-0.884 0.586-1.414v-4c0-0.53-0.211-1.039-0.586-1.414s-0.884-0.586-1.414-0.586h-4z"></path>
</symbol>
<symbol id="cup-hot" viewBox="0 0 32 32">
<path d="M1 12c-0.15 0-0.297 0.034-0.432 0.098s-0.254 0.159-0.347 0.276c-0.094 0.117-0.16 0.253-0.194 0.399s-0.035 0.297-0.003 0.443l3.304 14.868c0.247 1.11 0.865 2.104 1.752 2.816s1.991 1.1 3.128 1.1h11.584c1.138-0 2.241-0.388 3.128-1.1s1.505-1.705 1.752-2.816l0.262-1.18c1.53 0.286 3.111-0.033 4.41-0.891s2.213-2.186 2.551-3.706c0.337-1.519 0.071-3.11-0.742-4.437s-2.111-2.285-3.618-2.674l0.442-1.98c0.032-0.146 0.031-0.298-0.003-0.443s-0.1-0.282-0.194-0.399c-0.094-0.117-0.212-0.211-0.347-0.276s-0.283-0.098-0.432-0.098h-26zM26 25c-0.212 0-0.423-0.017-0.632-0.050l1.734-7.796c0.925 0.268 1.722 0.86 2.246 1.669s0.738 1.778 0.604 2.732c-0.134 0.954-0.607 1.827-1.333 2.46s-1.656 0.983-2.619 0.985zM5.28 27.65l-3.034-13.65h23.508l-3.034 13.65c-0.148 0.666-0.519 1.262-1.051 1.69s-1.195 0.66-1.877 0.66h-11.584c-0.683-0-1.345-0.233-1.877-0.66s-0.903-1.023-1.051-1.69z"></path>
<path d="M8.8 1.6l-0.006 0.008-0.028 0.038c-0.146 0.2-0.282 0.407-0.408 0.62-0.107 0.171-0.202 0.349-0.282 0.534-0.052 0.12-0.068 0.184-0.074 0.206v0.008c0.023 0.177 0.085 0.346 0.182 0.496 0.15 0.266 0.356 0.544 0.616 0.89l0.020 0.024c0.236 0.316 0.52 0.694 0.74 1.086 0.224 0.4 0.44 0.91 0.44 1.49 0 0.376-0.13 0.736-0.238 0.988-0.116 0.268-0.251 0.527-0.404 0.776-0.157 0.262-0.326 0.517-0.506 0.764l-0.036 0.050-0.010 0.016-0.004 0.004c-0.159 0.212-0.396 0.353-0.658 0.391s-0.529-0.030-0.742-0.189c-0.212-0.159-0.353-0.396-0.391-0.658s0.030-0.529 0.189-0.742l0.006-0.008 0.028-0.038c0.146-0.2 0.282-0.407 0.408-0.62 0.107-0.171 0.202-0.349 0.282-0.534 0.052-0.12 0.068-0.184 0.074-0.206-0.021-0.179-0.083-0.352-0.18-0.504-0.186-0.31-0.392-0.608-0.618-0.89l-0.020-0.024c-0.27-0.345-0.517-0.708-0.74-1.086-0.272-0.451-0.424-0.964-0.44-1.49 0-0.376 0.13-0.736 0.238-0.988 0.118-0.276 0.268-0.548 0.404-0.776 0.159-0.261 0.328-0.516 0.506-0.764l0.050-0.070c0.159-0.212 0.396-0.353 0.658-0.391s0.529 0.030 0.742 0.189c0.212 0.159 0.353 0.396 0.391 0.658s-0.030 0.529-0.189 0.742zM14.8 1.6l-0.006 0.008-0.028 0.038c-0.146 0.2-0.282 0.407-0.408 0.62-0.107 0.171-0.202 0.349-0.282 0.534-0.052 0.12-0.068 0.184-0.074 0.206v0.008c0.023 0.177 0.085 0.346 0.182 0.496 0.15 0.266 0.356 0.544 0.616 0.89l0.020 0.024c0.236 0.316 0.52 0.694 0.74 1.086 0.224 0.4 0.44 0.91 0.44 1.49 0 0.376-0.13 0.736-0.238 0.988-0.116 0.268-0.251 0.527-0.404 0.776-0.157 0.262-0.326 0.517-0.506 0.764l-0.036 0.050-0.010 0.016-0.004 0.004c-0.159 0.212-0.396 0.353-0.658 0.391s-0.529-0.030-0.742-0.189-0.353-0.396-0.391-0.658c-0.038-0.263 0.030-0.529 0.189-0.742l0.006-0.008 0.028-0.038c0.146-0.2 0.282-0.407 0.408-0.62 0.107-0.171 0.202-0.349 0.282-0.534 0.052-0.12 0.068-0.184 0.074-0.206-0.021-0.179-0.083-0.352-0.18-0.504-0.186-0.31-0.392-0.608-0.618-0.89l-0.020-0.024c-0.27-0.345-0.517-0.708-0.74-1.086-0.272-0.451-0.424-0.964-0.44-1.49 0-0.376 0.13-0.736 0.238-0.988 0.118-0.276 0.268-0.548 0.404-0.776 0.159-0.261 0.328-0.516 0.506-0.764l0.050-0.070c0.159-0.212 0.396-0.353 0.658-0.391s0.529 0.030 0.742 0.189 0.353 0.396 0.391 0.658c0.038 0.263-0.030 0.529-0.189 0.742zM20.8 1.6l-0.006 0.008-0.028 0.038c-0.145 0.2-0.282 0.407-0.408 0.62-0.107 0.171-0.202 0.349-0.282 0.534-0.052 0.12-0.068 0.184-0.074 0.206v0.008c0.023 0.177 0.085 0.346 0.182 0.496 0.15 0.266 0.356 0.544 0.616 0.89l0.020 0.024c0.236 0.316 0.52 0.694 0.74 1.086 0.224 0.4 0.44 0.91 0.44 1.49 0 0.376-0.13 0.736-0.238 0.988-0.116 0.268-0.251 0.527-0.404 0.776-0.156 0.262-0.324 0.517-0.504 0.764l-0.038 0.050-0.010 0.016-0.004 0.004c-0.159 0.212-0.396 0.353-0.658 0.391s-0.529-0.030-0.742-0.189-0.353-0.396-0.391-0.658c-0.038-0.263 0.030-0.529 0.189-0.742l0.006-0.008 0.028-0.038c0.145-0.2 0.282-0.407 0.408-0.62 0.107-0.171 0.202-0.349 0.282-0.534 0.052-0.12 0.068-0.184 0.074-0.206-0.021-0.179-0.083-0.352-0.18-0.504-0.186-0.31-0.392-0.608-0.618-0.89l-0.020-0.024c-0.27-0.345-0.517-0.708-0.74-1.086-0.272-0.451-0.424-0.964-0.44-1.49 0-0.376 0.13-0.736 0.238-0.988 0.118-0.276 0.268-0.548 0.404-0.776 0.159-0.261 0.328-0.516 0.506-0.764l0.050-0.070c0.159-0.212 0.396-0.353 0.658-0.391s0.529 0.030 0.742 0.189 0.353 0.396 0.391 0.658c0.038 0.263-0.030 0.529-0.189 0.742z"></path>
</symbol>
<symbol id="diagram" viewBox="0 0 32 32">
<path d="M12 7c0-0.796 0.316-1.559 0.879-2.121s1.326-0.879 2.121-0.879h2c0.796 0 1.559 0.316 2.121 0.879s0.879 1.326 0.879 2.121v2c0 0.796-0.316 1.559-0.879 2.121s-1.326 0.879-2.121 0.879v2h11c0.265 0 0.52 0.105 0.707 0.293s0.293 0.442 0.293 0.707v2c0 0.265-0.105 0.52-0.293 0.707s-0.442 0.293-0.707 0.293c-0.265 0-0.52-0.105-0.707-0.293s-0.293-0.442-0.293-0.707v-1h-10v1c0 0.265-0.105 0.52-0.293 0.707s-0.442 0.293-0.707 0.293c-0.265 0-0.52-0.105-0.707-0.293s-0.293-0.442-0.293-0.707v-1h-10v1c0 0.265-0.105 0.52-0.293 0.707s-0.442 0.293-0.707 0.293c-0.265 0-0.52-0.105-0.707-0.293s-0.293-0.442-0.293-0.707v-2c0-0.265 0.105-0.52 0.293-0.707s0.442-0.293 0.707-0.293h11v-2c-0.796 0-1.559-0.316-2.121-0.879s-0.879-1.326-0.879-2.121v-2zM17 10c0.265 0 0.52-0.105 0.707-0.293s0.293-0.442 0.293-0.707v-2c0-0.265-0.105-0.52-0.293-0.707s-0.442-0.293-0.707-0.293h-2c-0.265 0-0.52 0.105-0.707 0.293s-0.293 0.442-0.293 0.707v2c0 0.265 0.105 0.52 0.293 0.707s0.442 0.293 0.707 0.293h2zM0 23c0-0.796 0.316-1.559 0.879-2.121s1.326-0.879 2.121-0.879h2c0.796 0 1.559 0.316 2.121 0.879s0.879 1.326 0.879 2.121v2c0 0.796-0.316 1.559-0.879 2.121s-1.326 0.879-2.121 0.879h-2c-0.796 0-1.559-0.316-2.121-0.879s-0.879-1.326-0.879-2.121v-2zM3 22c-0.265 0-0.52 0.105-0.707 0.293s-0.293 0.442-0.293 0.707v2c0 0.265 0.105 0.52 0.293 0.707s0.442 0.293 0.707 0.293h2c0.265 0 0.52-0.105 0.707-0.293s0.293-0.442 0.293-0.707v-2c0-0.265-0.105-0.52-0.293-0.707s-0.442-0.293-0.707-0.293h-2zM12 23c0-0.796 0.316-1.559 0.879-2.121s1.326-0.879 2.121-0.879h2c0.796 0 1.559 0.316 2.121 0.879s0.879 1.326 0.879 2.121v2c0 0.796-0.316 1.559-0.879 2.121s-1.326 0.879-2.121 0.879h-2c-0.796 0-1.559-0.316-2.121-0.879s-0.879-1.326-0.879-2.121v-2zM15 22c-0.265 0-0.52 0.105-0.707 0.293s-0.293 0.442-0.293 0.707v2c0 0.265 0.105 0.52 0.293 0.707s0.442 0.293 0.707 0.293h2c0.265 0 0.52-0.105 0.707-0.293s0.293-0.442 0.293-0.707v-2c0-0.265-0.105-0.52-0.293-0.707s-0.442-0.293-0.707-0.293h-2zM24 23c0-0.796 0.316-1.559 0.879-2.121s1.326-0.879 2.121-0.879h2c0.796 0 1.559 0.316 2.121 0.879s0.879 1.326 0.879 2.121v2c0 0.796-0.316 1.559-0.879 2.121s-1.326 0.879-2.121 0.879h-2c-0.796 0-1.559-0.316-2.121-0.879s-0.879-1.326-0.879-2.121v-2zM27 22c-0.265 0-0.52 0.105-0.707 0.293s-0.293 0.442-0.293 0.707v2c0 0.265 0.105 0.52 0.293 0.707s0.442 0.293 0.707 0.293h2c0.265 0 0.52-0.105 0.707-0.293s0.293-0.442 0.293-0.707v-2c0-0.265-0.105-0.52-0.293-0.707s-0.442-0.293-0.707-0.293h-2z"></path>
</symbol>
<symbol id="hugeicons_gas-stove" viewBox="0 0 32 32">
<path stroke-width="2.4" stroke-miterlimit="4" stroke-linecap="round" stroke-linejoin="round" d="M8 25.333h5.333M24 25.345v-0.012M2.667 8c0-4.413 0.92-5.333 5.333-5.333h16c4.413 0 5.333 0.92 5.333 5.333v16c0 4.413-0.92 5.333-5.333 5.333h-16c-4.413 0-5.333-0.92-5.333-5.333v-16z"></path>
<path stroke-width="2.4" stroke-miterlimit="4" stroke-linecap="round" stroke-linejoin="round" d="M16 18.667c2.945 0 5.333-2.388 5.333-5.333s-2.388-5.333-5.333-5.333-5.333 2.388-5.333 5.333c0 2.946 2.388 5.333 5.333 5.333z"></path>
<path stroke-width="2.4" stroke-miterlimit="4" stroke-linecap="round" stroke-linejoin="round" d="M20.667 13.333h2M16 18v2M11.333 13.333h-2M16 8.667v-2"></path>
</symbol>
<symbol id='map' viewBox='0 0 20 20'>
<path fill-rule="evenodd" clip-rule="evenodd" d="M19.7712 0.141029C19.8428 0.199699 19.9005 0.273527 19.94 0.357185C19.9796 0.440842 20.0001 0.53224 20 0.624779V18.1248C19.9999 18.2692 19.9498 18.4092 19.8582 18.5208C19.7666 18.6325 19.6391 18.709 19.4975 18.7373L13.2475 19.9873C13.1666 20.0034 13.0834 20.0034 13.0025 19.9873L6.875 18.7623L0.7475 19.9873C0.656861 20.0054 0.563332 20.0032 0.473651 19.9808C0.38397 19.9584 0.30037 19.9164 0.228874 19.8578C0.157378 19.7993 0.0997667 19.7255 0.0601897 19.642C0.0206127 19.5585 5.58159e-05 19.4672 0 19.3748L0 1.87478C8.72276e-05 1.73035 0.0501951 1.5904 0.141804 1.47874C0.233413 1.36708 0.360869 1.29059 0.5025 1.26228L6.7525 0.0122789C6.83337 -0.00388454 6.91663 -0.00388454 6.9975 0.0122789L13.125 1.23728L19.2525 0.0122789C19.3431 -0.00595135 19.4366 -0.00385945 19.5263 0.0184039C19.616 0.0406672 19.6997 0.0825478 19.7712 0.141029ZM12.5 2.38728L7.5 1.38728V17.6123L12.5 18.6123V2.38728ZM13.75 18.6123L18.75 17.6123V1.38728L13.75 2.38728V18.6123ZM6.25 17.6123V1.38728L1.25 2.38728V18.6123L6.25 17.6123Z" />
</symbol>
<symbol id="ion_water-outline" viewBox="0 0 32 32">
<path stroke-width="2" stroke-miterlimit="10" stroke-linecap="butt" stroke-linejoin="miter" d="M25 20c0 5.523-3.477 9-9 9s-9-3.477-9-9c0-5.927 6.452-13.928 8.431-16.242 0.070-0.082 0.158-0.148 0.256-0.194s0.205-0.069 0.314-0.069c0.108 0 0.215 0.023 0.314 0.069s0.186 0.111 0.256 0.194c1.978 2.314 8.43 10.316 8.43 16.242z"></path>
<path stroke-width="2" stroke-miterlimit="4" stroke-linecap="round" stroke-linejoin="round" d="M21.5 20.5c0 1.194-0.474 2.338-1.318 3.182s-1.988 1.318-3.182 1.318"></path>
</symbol>
<symbol id="lucide_microwave" viewBox="0 0 32 32">
<path stroke-width="2" stroke-miterlimit="4" stroke-linecap="round" stroke-linejoin="round" d="M26.667 5.333h-21.333c-1.473 0-2.667 1.194-2.667 2.667v14.667c0 1.473 1.194 2.667 2.667 2.667h21.333c1.473 0 2.667-1.194 2.667-2.667v-14.667c0-1.473-1.194-2.667-2.667-2.667z"></path>
<path stroke-width="2" stroke-miterlimit="4" stroke-linecap="round" stroke-linejoin="round" d="M17.333 10.667h-8c-0.736 0-1.333 0.597-1.333 1.333v6.667c0 0.736 0.597 1.333 1.333 1.333h8c0.736 0 1.333-0.597 1.333-1.333v-6.667c0-0.736-0.597-1.333-1.333-1.333z"></path>
<path stroke-width="2" stroke-miterlimit="4" stroke-linecap="round" stroke-linejoin="round" d="M24 10.667v9.333M8 25.333v2.667M24 25.333v2.667"></path>
</symbol>
<symbol id="ph_shower" viewBox="0 0 32 32">
<path d="M8 29.5c0 0.297-0.088 0.587-0.253 0.833s-0.399 0.439-0.673 0.552-0.576 0.143-0.867 0.085c-0.291-0.058-0.558-0.201-0.768-0.41s-0.353-0.477-0.411-0.768c-0.058-0.291-0.028-0.593 0.085-0.867s0.306-0.508 0.552-0.673c0.247-0.165 0.537-0.253 0.833-0.253 0.398 0 0.779 0.158 1.061 0.439s0.439 0.663 0.439 1.061zM10.5 24c-0.297 0-0.587 0.088-0.833 0.253s-0.439 0.399-0.552 0.673c-0.114 0.274-0.143 0.576-0.085 0.867s0.201 0.558 0.411 0.768c0.21 0.21 0.477 0.353 0.768 0.41s0.592 0.028 0.867-0.085 0.508-0.306 0.673-0.552c0.165-0.247 0.253-0.537 0.253-0.833 0-0.398-0.158-0.779-0.439-1.061s-0.663-0.439-1.061-0.439zM2.5 24c-0.297 0-0.587 0.088-0.833 0.253s-0.439 0.399-0.552 0.673c-0.114 0.274-0.143 0.576-0.085 0.867s0.201 0.558 0.411 0.768c0.21 0.21 0.477 0.353 0.768 0.41s0.593 0.028 0.867-0.085c0.274-0.113 0.508-0.306 0.673-0.552s0.253-0.537 0.253-0.833c0-0.398-0.158-0.779-0.439-1.061s-0.663-0.439-1.061-0.439zM6.5 20c-0.297 0-0.587 0.088-0.833 0.253s-0.439 0.399-0.552 0.673c-0.114 0.274-0.143 0.576-0.085 0.867s0.201 0.558 0.411 0.768c0.21 0.21 0.477 0.353 0.768 0.41s0.593 0.028 0.867-0.085c0.274-0.113 0.508-0.306 0.673-0.552s0.253-0.537 0.253-0.833c0-0.398-0.158-0.779-0.439-1.061s-0.663-0.439-1.061-0.439zM32 5c0 0.265-0.105 0.52-0.293 0.707s-0.442 0.293-0.707 0.293h-3.586l-3.481 3.482-2.707 15.849c-0.061 0.362-0.22 0.701-0.461 0.978s-0.553 0.483-0.902 0.595c-0.35 0.112-0.724 0.125-1.080 0.039s-0.683-0.27-0.943-0.529l-12.25-12.25c-0.26-0.26-0.443-0.586-0.53-0.944s-0.073-0.732 0.039-1.082c0.112-0.35 0.319-0.662 0.597-0.903s0.617-0.399 0.98-0.46l15.842-2.709 3.775-3.775c0.093-0.093 0.203-0.166 0.325-0.217s0.252-0.076 0.383-0.076h4c0.265 0 0.52 0.105 0.707 0.293s0.293 0.442 0.293 0.707zM21.776 10.224l-14.776 2.526 12.25 12.25 2.526-14.776z"></path>
</symbol>
<symbol id="solar_fridge-outline" viewBox="0 0 32 32">
<path d="M23.667 9.333c0-0.265-0.105-0.52-0.293-0.707s-0.442-0.293-0.707-0.293c-0.265 0-0.52 0.105-0.707 0.293s-0.293 0.442-0.293 0.707v2.667c0 0.265 0.105 0.52 0.293 0.707s0.442 0.293 0.707 0.293c0.265 0 0.52-0.105 0.707-0.293s0.293-0.442 0.293-0.707v-2.667zM23.667 18.667c0-0.265-0.105-0.52-0.293-0.707s-0.442-0.293-0.707-0.293c-0.265 0-0.52 0.105-0.707 0.293s-0.293 0.442-0.293 0.707v2.667c0 0.265 0.105 0.52 0.293 0.707s0.442 0.293 0.707 0.293c0.265 0 0.52-0.105 0.707-0.293s0.293-0.442 0.293-0.707v-2.667z"></path>
<path d="M16.075 1.667h-0.149c-2.451 0-4.392 0-5.911 0.204-1.563 0.211-2.828 0.653-3.827 1.651-0.997 0.999-1.44 2.264-1.651 3.827-0.204 1.52-0.204 3.46-0.204 5.911v4.149c0 2.451 0 4.392 0.204 5.911 0.211 1.563 0.653 2.828 1.651 3.827 0.613 0.612 1.325 1.015 2.145 1.284v0.904c0 0.552 0.448 1 1 1h1.333c0.265 0 0.52-0.105 0.707-0.293s0.293-0.442 0.293-0.707v-0.395c1.209 0.061 2.62 0.061 4.259 0.061h0.149c1.64 0 3.049 0 4.259-0.061v0.395c0 0.552 0.448 1 1 1h1.333c0.265 0 0.52-0.105 0.707-0.293s0.293-0.442 0.293-0.707v-0.904c0.82-0.269 1.533-0.672 2.145-1.284 0.997-0.999 1.44-2.264 1.651-3.827 0.204-1.52 0.204-3.46 0.204-5.911v-4.148c0-2.451 0-4.392-0.204-5.911-0.211-1.563-0.653-2.828-1.651-3.827-0.999-0.997-2.264-1.44-3.827-1.651-1.52-0.204-3.46-0.204-5.911-0.204zM7.603 4.936c0.564-0.564 1.337-0.903 2.679-1.083 1.371-0.184 3.176-0.187 5.719-0.187s4.349 0.003 5.72 0.187c1.34 0.18 2.113 0.519 2.677 1.083s0.903 1.337 1.083 2.679c0.184 1.371 0.187 3.176 0.187 5.719v1h-19.333v-1c0-2.543 0.003-4.348 0.187-5.72 0.18-1.34 0.519-2.113 1.083-2.677zM6.333 16.333h19.333v1c0 2.543-0.003 4.349-0.187 5.72-0.18 1.34-0.519 2.113-1.083 2.677s-1.337 0.903-2.679 1.083c-1.371 0.184-3.176 0.187-5.719 0.187s-4.348-0.003-5.72-0.187c-1.34-0.18-2.113-0.519-2.677-1.083s-0.903-1.337-1.083-2.679c-0.184-1.369-0.187-3.176-0.187-5.719v-1z"></path>
</symbol>
<symbol id="tv" viewBox="0 0 32 32">
<path d="M0 8c0 0 0-4 4-4h24c0 0 4 0 4 4v12c0 0 0 4-4 4h-8c0 1.333 0.167 2.333 0.5 3h1.5c0.265 0 0.52 0.105 0.707 0.293s0.293 0.442 0.293 0.707c0 0.265-0.105 0.52-0.293 0.707s-0.442 0.293-0.707 0.293h-12c-0.265 0-0.52-0.105-0.707-0.293s-0.293-0.442-0.293-0.707c0-0.265 0.105-0.52 0.293-0.707s0.442-0.293 0.707-0.293h1.5c0.333-0.667 0.5-1.667 0.5-3h-8c0 0-4 0-4-4v-12zM2.796 6.29c-0.22 0.153-0.395 0.361-0.508 0.604-0.168 0.353-0.266 0.735-0.288 1.126v11.98c0 0.65 0.156 1.004 0.29 1.204 0.14 0.208 0.341 0.377 0.604 0.508 0.338 0.162 0.703 0.259 1.076 0.286l0.050 0.002h23.98c0.65 0 1.004-0.156 1.204-0.29 0.22-0.153 0.395-0.361 0.508-0.604 0.162-0.338 0.259-0.703 0.286-1.076l0.002-0.050v-11.98c0-0.65-0.156-1.004-0.29-1.204-0.153-0.22-0.361-0.395-0.604-0.508-0.353-0.168-0.736-0.266-1.126-0.288h-23.98c-0.65 0-1.004 0.156-1.204 0.29z"></path>
</symbol>
<symbol id="wind" viewBox="0 0 32 32">
<path d="M25 4c-1.326 0-2.598 0.527-3.535 1.464s-1.465 2.209-1.465 3.536c0 0.265-0.105 0.52-0.293 0.707s-0.442 0.293-0.707 0.293c-0.265 0-0.52-0.105-0.707-0.293s-0.293-0.442-0.293-0.707c0-1.384 0.41-2.738 1.18-3.889s1.862-2.048 3.142-2.578c1.279-0.53 2.687-0.668 4.044-0.398s2.605 0.937 3.584 1.916c0.979 0.979 1.646 2.226 1.916 3.584s0.131 2.765-0.398 4.044c-0.53 1.279-1.427 2.372-2.578 3.142s-2.505 1.18-3.889 1.18h-24c-0.265 0-0.52-0.105-0.707-0.293s-0.293-0.442-0.293-0.707c0-0.265 0.105-0.52 0.293-0.707s0.442-0.293 0.707-0.293h24c1.326 0 2.598-0.527 3.535-1.464s1.465-2.209 1.465-3.536-0.527-2.598-1.465-3.536c-0.938-0.938-2.209-1.464-3.535-1.464zM11 6c-0.53 0-1.039 0.211-1.414 0.586s-0.586 0.884-0.586 1.414c0 0.265-0.105 0.52-0.293 0.707s-0.442 0.293-0.707 0.293c-0.265 0-0.52-0.105-0.707-0.293s-0.293-0.442-0.293-0.707c0-0.791 0.235-1.564 0.674-2.222s1.064-1.17 1.795-1.473c0.731-0.303 1.535-0.382 2.311-0.228s1.489 0.535 2.048 1.095 0.94 1.272 1.095 2.048c0.154 0.776 0.075 1.58-0.228 2.311s-0.815 1.356-1.473 1.795-1.431 0.674-2.222 0.674h-10c-0.265 0-0.52-0.105-0.707-0.293s-0.293-0.442-0.293-0.707c0-0.265 0.105-0.52 0.293-0.707s0.442-0.293 0.707-0.293h10c0.53 0 1.039-0.211 1.414-0.586s0.586-0.884 0.586-1.414c0-0.53-0.211-1.039-0.586-1.414s-0.884-0.586-1.414-0.586zM0 19c0-0.265 0.105-0.52 0.293-0.707s0.442-0.293 0.707-0.293h20.084c1.187 0 2.347 0.352 3.333 1.011s1.756 1.596 2.21 2.693c0.454 1.096 0.573 2.303 0.341 3.467s-0.803 2.233-1.642 3.072c-0.839 0.839-1.908 1.411-3.072 1.642s-2.37 0.113-3.467-0.341-2.033-1.223-2.693-2.21c-0.659-0.987-1.011-2.147-1.011-3.333 0-0.265 0.105-0.52 0.293-0.707s0.442-0.293 0.707-0.293c0.265 0 0.52 0.105 0.707 0.293s0.293 0.442 0.293 0.707c0 0.791 0.235 1.564 0.674 2.222s1.064 1.171 1.795 1.473c0.731 0.303 1.535 0.382 2.311 0.228s1.489-0.535 2.048-1.095 0.94-1.272 1.095-2.048c0.154-0.776 0.075-1.58-0.228-2.311s-0.815-1.356-1.473-1.795c-0.658-0.439-1.431-0.674-2.222-0.674h-20.084c-0.265 0-0.52-0.105-0.707-0.293s-0.293-0.442-0.293-0.707z"></path>
</symbol>
<symbol id="fuel_pump" viewBox="0 0 20 20">
<path d="M3.75 3.125C3.75 2.95924 3.81585 2.80027 3.93306 2.68306C4.05027 2.56585 4.20924 2.5 4.375 2.5H10.625C10.7908 2.5 10.9497 2.56585 11.0669 2.68306C11.1842 2.80027 11.25 2.95924 11.25 3.125V9.375C11.25 9.54076 11.1842 9.69973 11.0669 9.81694C10.9497 9.93415 10.7908 10 10.625 10H4.375C4.20924 10 4.05027 9.93415 3.93306 9.81694C3.81585 9.69973 3.75 9.54076 3.75 9.375V3.125Z" fill="#101828"/>
<path d="M1.25 2.5C1.25 1.83696 1.51339 1.20107 1.98223 0.732233C2.45107 0.263392 3.08696 0 3.75 0L11.25 0C11.913 0 12.5489 0.263392 13.0178 0.732233C13.4866 1.20107 13.75 1.83696 13.75 2.5V12.5C14.413 12.5 15.0489 12.7634 15.5178 13.2322C15.9866 13.7011 16.25 14.337 16.25 15V15.625C16.25 15.7908 16.3158 15.9497 16.4331 16.0669C16.5503 16.1842 16.7092 16.25 16.875 16.25C17.0408 16.25 17.1997 16.1842 17.3169 16.0669C17.4342 15.9497 17.5 15.7908 17.5 15.625V10H16.875C16.7092 10 16.5503 9.93415 16.4331 9.81694C16.3158 9.69973 16.25 9.54076 16.25 9.375V5.46875C16.25 5.30299 16.3158 5.14402 16.4331 5.02681C16.5503 4.9096 16.7092 4.84375 16.875 4.84375H18.7437C18.73 4.24875 18.6775 3.72625 18.4925 3.31625C18.3935 3.07785 18.2209 2.87729 18 2.74375C17.77 2.60625 17.42 2.5 16.875 2.5C16.7092 2.5 16.5503 2.43415 16.4331 2.31694C16.3158 2.19973 16.25 2.04076 16.25 1.875C16.25 1.70924 16.3158 1.55027 16.4331 1.43306C16.5503 1.31585 16.7092 1.25 16.875 1.25C17.58 1.24833 18.1683 1.38833 18.64 1.67C19.1187 1.955 19.4325 2.35875 19.6325 2.80375C20.0013 3.6225 20 4.635 20 5.405V9.37375C20.0002 9.45593 19.9841 9.53734 19.9528 9.61331C19.9214 9.68928 19.8754 9.75833 19.8174 9.8165C19.7593 9.87467 19.6904 9.92082 19.6145 9.95231C19.5386 9.98379 19.4572 10 19.375 10H18.75V15.625C18.75 16.1223 18.5525 16.5992 18.2008 16.9508C17.8492 17.3025 17.3723 17.5 16.875 17.5C16.3777 17.5 15.9008 17.3025 15.5492 16.9508C15.1975 16.5992 15 16.1223 15 15.625V15C15 14.6685 14.8683 14.3505 14.6339 14.1161C14.3995 13.8817 14.0815 13.75 13.75 13.75V18.75H14.375C14.5408 18.75 14.6997 18.8158 14.8169 18.9331C14.9342 19.0503 15 19.2092 15 19.375C15 19.5408 14.9342 19.6997 14.8169 19.8169C14.6997 19.9342 14.5408 20 14.375 20H0.625C0.45924 20 0.300269 19.9342 0.183058 19.8169C0.065848 19.6997 0 19.5408 0 19.375C0 19.2092 0.065848 19.0503 0.183058 18.9331C0.300269 18.8158 0.45924 18.75 0.625 18.75H1.25V2.5ZM12.5 2.5C12.5 2.16848 12.3683 1.85054 12.1339 1.61612C11.8995 1.3817 11.5815 1.25 11.25 1.25H3.75C3.41848 1.25 3.10054 1.3817 2.86612 1.61612C2.6317 1.85054 2.5 2.16848 2.5 2.5V18.75H12.5V2.5Z"/>
</symbol>
<symbol id="heart" viewBox="0 0 25 24">
    <path d="M12 7.854L10.659 5.1705C10.326 4.506 9.7485 3.5505 8.931 2.778C8.127 2.0175 7.164 1.5 6 1.5C3.486 1.5 1.5 3.489 1.5 5.88C1.5 7.6965 2.331 8.979 4.302 10.935C4.8075 11.436 5.3835 11.9775 6.021 12.5745C7.683 14.1345 9.75 16.0755 12 18.6705C14.25 16.0755 16.317 14.1345 17.979 12.5745C18.6165 11.9775 19.194 11.4345 19.698 10.935C21.669 8.979 22.5 7.6965 22.5 5.88C22.5 3.489 20.514 1.5 18 1.5C16.8345 1.5 15.873 2.0175 15.069 2.778C14.2515 3.5505 13.674 4.506 13.341 5.1705L12 7.854ZM12.588 20.292C12.5158 20.3776 12.4257 20.4463 12.3242 20.4935C12.2226 20.5407 12.112 20.5651 12 20.5651C11.888 20.5651 11.7774 20.5407 11.6758 20.4935C11.5743 20.4463 11.4842 20.3776 11.412 20.292C9.0105 17.439 6.837 15.399 5.0475 13.7205C1.95 10.812 0 8.9835 0 5.88C0 2.6325 2.685 0 6 0C8.4 0 10.0785 1.575 11.106 3.012C11.496 3.5595 11.793 4.086 12 4.5C12.2597 3.982 12.5586 3.48456 12.894 3.012C13.9215 1.5735 15.6 0 18 0C21.315 0 24 2.6325 24 5.88C24 8.9835 22.05 10.812 18.9525 13.7205C17.163 15.4005 14.9895 17.442 12.588 20.292Z"/>
</symbol>
<symbol id='rating' viewBox='0 0 16 16'>
    <path d="M6.64768 0.266696C6.83528 -0.0888769 7.34453 -0.088876 7.53213 0.266697L9.42037 3.84557C9.49271 3.9827 9.62458 4.0785 9.77734 4.10493L13.7646 4.79482C14.1607 4.86336 14.3181 5.34768 14.0379 5.63598L11.2176 8.53774C11.1096 8.64891 11.0592 8.80393 11.0813 8.95739L11.6573 12.9626C11.7145 13.3606 11.3025 13.6599 10.9418 13.4825L7.31053 11.697C7.1714 11.6286 7.00841 11.6286 6.86928 11.697L3.23805 13.4825C2.87728 13.6599 2.46529 13.3606 2.52252 12.9626L3.09851 8.95739C3.12058 8.80393 3.07022 8.64891 2.96216 8.53773L0.141944 5.63598C-0.138254 5.34768 0.0191108 4.86336 0.415254 4.79482L4.40247 4.10493C4.55523 4.0785 4.6871 3.9827 4.75944 3.84557L6.64768 0.266696Z"/>
</symbol>
</defs>
</svg>
